<?xml version="1.0" encoding="UTF-8"?>
<svg id="Layer_1" xmlns="http://www.w3.org/2000/svg" width="410" height="115" viewBox="0 0 410 115">
  <defs>
    <style>
      .cls-1 {
        fill: #242424;
      }

      .cls-2 {
        fill: #fbae23;
      }

      .cls-3 {
        fill: #1a1a1a;
      }
    </style>
  </defs>
  <g>
    <path class="cls-1" d="M65.29,4.95H12.51c-4.15,0-7.51,3.36-7.51,7.51v90.09c0,4.15,3.36,7.51,7.51,7.51h67.33c4.15,0,7.51-3.36,7.51-7.51V27l-22.05-22.05Z"/>
    <circle class="cls-2" cx="46.17" cy="57.5" r="11.26"/>
    <line class="cls-3" x1="87.34" y1="27.47" x2="64.82" y2="4.95"/>
    <path class="cls-2" d="M65.29,19.5c0,4.15,3.36,7.51,7.51,7.51h14.55s-22.05-22.05-22.05-22.05v14.55Z"/>
  </g>
  <g>
    <path class="cls-2" d="M104.17,66.32c0-12.64,9.23-21.46,21.29-21.46,7.82,0,14.22,3.66,17.3,9.9v-26.78h5.57v38.26c0,13.22-9.23,21.87-21.96,21.87s-22.21-9.15-22.21-21.79ZM142.76,66.48c0-9.48-6.57-16.47-16.47-16.47s-16.47,6.99-16.47,16.47,6.65,16.47,16.47,16.47,16.47-6.99,16.47-16.47Z"/>
    <path class="cls-2" d="M154.83,66.48c0-12.47,9.15-21.62,22.12-21.62s22.12,9.15,22.12,21.62-9.15,21.62-22.12,21.62-22.12-9.15-22.12-21.62ZM193.41,66.48c0-9.48-6.65-16.47-16.47-16.47s-16.47,6.99-16.47,16.47,6.65,16.47,16.47,16.47,16.47-6.99,16.47-16.47Z"/>
    <path class="cls-2" d="M205.56,71.89V31.39h5.57v14.55h24.2v5.07h-24.2v20.87c0,7.48,4.16,11.06,10.56,11.06s10.56-3.49,10.56-11.06v-.91h5.41v.91c0,10.81-6.49,16.22-15.97,16.22s-16.13-5.41-16.13-16.22Z"/>
    <path class="cls-2" d="M245.98,44.28c0-11.56,7.07-17.38,17.3-17.38s17.21,5.9,17.21,17.63h-5.49c0-8.57-4.74-12.47-11.73-12.47s-11.73,3.91-11.73,12.23v7.4h24.12v5.07h-24.12v30.27h-5.57v-42.75ZM284.57,33.72c0-2.41,1.83-4.24,4.24-4.24s4.24,1.83,4.24,4.24-1.83,4.24-4.24,4.24-4.24-1.83-4.24-4.24ZM286.07,45.94h5.57v41.08h-5.57v-41.08Z"/>
    <path class="cls-2" d="M302.87,27.98h5.57v59.05h-5.57V27.98Z"/>
    <path class="cls-2" d="M316.51,66.48c0-12.47,9.15-21.62,22.12-21.62s21.96,9.15,21.96,21.62v1.83h-38.34c.75,8.57,7.15,14.64,16.38,14.64,6.49,0,11.48-2.66,14.14-7.4h6.07c-3.16,7.57-10.65,12.56-20.21,12.56-12.97,0-22.12-9.15-22.12-21.62ZM354.77,63.32c-1.33-8.32-7.82-13.31-16.13-13.31s-14.97,5.24-16.22,13.31h32.35Z"/>
    <path class="cls-2" d="M365.67,75.47h5.65c.25,4.41,4.24,7.57,11.14,7.57s11.14-3.33,11.14-7.73c0-4.99-5.24-5.57-11.14-6.32-7.4-.91-15.8-2.08-15.8-11.14,0-7.73,6.07-12.97,15.72-12.97s15.55,5.32,15.72,12.31h-5.49c-.25-4.07-3.99-7.24-10.31-7.24s-10.06,3.16-10.06,7.4c0,5.07,5.32,5.65,11.14,6.4,6.4.83,15.88,1.83,15.88,11.14,0,7.82-6.57,13.22-16.8,13.22s-16.55-5.41-16.8-12.64Z"/>
  </g>
</svg>