<?xml version="1.0" encoding="UTF-8"?>
<svg id="Vertical" xmlns="http://www.w3.org/2000/svg" width="280" height="280" viewBox="0 0 280 280">
  <defs>
    <style>
      .cls-1 {
        fill: #242424;
      }

      .cls-2 {
        fill: #fbae23;
      }

      .cls-3 {
        fill: #1a1a1a;
      }
    </style>
  </defs>
  <g>
    <path class="cls-2" d="M48.44,261.88c0-7.84,5.73-13.31,13.21-13.31,4.85,0,8.83,2.27,10.73,6.14v-16.62h3.46v23.74c0,8.21-5.73,13.57-13.62,13.57s-13.78-5.68-13.78-13.52ZM72.39,261.99c0-5.88-4.08-10.22-10.22-10.22s-10.22,4.34-10.22,10.22,4.13,10.22,10.22,10.22,10.22-4.33,10.22-10.22Z"/>
    <path class="cls-2" d="M79.87,261.99c0-7.74,5.68-13.42,13.73-13.42s13.73,5.68,13.73,13.42-5.68,13.42-13.73,13.42-13.73-5.68-13.73-13.42ZM103.82,261.99c0-5.88-4.13-10.22-10.22-10.22s-10.22,4.34-10.22,10.22,4.13,10.22,10.22,10.22,10.22-4.33,10.22-10.22Z"/>
    <path class="cls-2" d="M111.36,265.34v-25.13h3.46v9.03h15.02v3.15h-15.02v12.95c0,4.64,2.58,6.86,6.55,6.86s6.55-2.17,6.55-6.86v-.57h3.35v.57c0,6.71-4.03,10.06-9.91,10.06s-10.01-3.35-10.01-10.06Z"/>
    <path class="cls-2" d="M136.44,248.21c0-7.17,4.39-10.79,10.73-10.79s10.68,3.66,10.68,10.94h-3.41c0-5.32-2.94-7.74-7.28-7.74s-7.28,2.43-7.28,7.59v4.59h14.97v3.15h-14.97v18.79h-3.46v-26.53ZM160.39,241.65c0-1.5,1.13-2.63,2.63-2.63s2.63,1.14,2.63,2.63-1.13,2.63-2.63,2.63-2.63-1.14-2.63-2.63ZM161.31,249.24h3.46v25.49h-3.46v-25.49Z"/>
    <path class="cls-2" d="M171.74,238.09h3.46v36.64h-3.46v-36.64Z"/>
    <path class="cls-2" d="M180.21,261.99c0-7.74,5.68-13.42,13.73-13.42s13.62,5.68,13.62,13.42v1.14h-23.79c.46,5.32,4.44,9.08,10.17,9.08,4.03,0,7.12-1.65,8.77-4.59h3.77c-1.96,4.7-6.61,7.79-12.54,7.79-8.05,0-13.73-5.68-13.73-13.42ZM203.95,260.03c-.83-5.16-4.85-8.26-10.01-8.26s-9.29,3.25-10.06,8.26h20.08Z"/>
    <path class="cls-2" d="M210.71,267.56h3.51c.15,2.74,2.63,4.7,6.92,4.7s6.92-2.06,6.92-4.8c0-3.1-3.25-3.46-6.92-3.92-4.59-.57-9.8-1.29-9.8-6.92,0-4.8,3.77-8.05,9.75-8.05s9.65,3.3,9.75,7.64h-3.41c-.15-2.53-2.48-4.49-6.4-4.49s-6.24,1.96-6.24,4.59c0,3.15,3.3,3.51,6.92,3.97,3.97.52,9.86,1.14,9.86,6.92,0,4.85-4.08,8.21-10.42,8.21s-10.27-3.35-10.42-7.84Z"/>
  </g>
  <g>
    <path class="cls-1" d="M180.71,4.59h-112.39c-8.83,0-15.99,7.16-15.99,15.99v191.82c0,8.83,7.16,15.99,15.99,15.99h143.37c8.83,0,15.99-7.16,15.99-15.99V51.55L180.71,4.59Z"/>
    <circle class="cls-2" cx="140" cy="116.49" r="23.98"/>
    <line class="cls-3" x1="227.67" y1="52.55" x2="179.71" y2="4.59"/>
    <path class="cls-2" d="M180.71,35.57c0,8.83,7.16,15.99,15.99,15.99h30.97S180.71,4.59,180.71,4.59v30.97Z"/>
  </g>
</svg>