<svg xmlns="http://www.w3.org/2000/svg" id="Layer_1" width="981.78" height="686.82"><defs><style>.cls-1{fill:#33c4f3}</style></defs><g id="Book"><path d="m0 93.32 53.72.65v482.8l1.94 1.94c122.78-41.6 354.71-55.82 434.91 66.01 84.53-117.66 281-105.77 406.43-75.07 7.2 1.76 28.5 11.63 30.42 7.12V93.97l53.72-.65.65 549.46c-63.18 4.46-383.07-3.73-408.37.65-26.87 4.65-24.76 53.72-102.26 41.42-35.54-5.64-34.65-30.58-60.84-41.42H0z" class="cls-1"/><path d="M810.28.12c1.58 0 6.28-.54 7.12.65v402.55c-111.33-1.7-245.49 35.04-313.88 127.5 2.84-70.35-5.88-325.17-.65-368.25 9.1-74.93 126.61-123.35 189.63-140.44 19.17-5.2 103.16-22 117.78-22.01m-645.9 0C251.24 3.45 465 57.25 478.26 161.27c5.61 44-4.75 298.91.65 370.84-72.08-95.82-199.6-129.24-315.18-128.79z" class="cls-1"/><path d="m84.13 66.14 29.12.65v390.9l1.94 1.94c107.39-18.22 243.47 2.25 327.48 75.07 13.85 12.01 44.49 40.29 36.24 58.25-104.18-93.09-269.59-88.56-396.72-51.13zm785.69 1.29 29.12 1.94v472.44c-35.62-7.73-72.2-18.85-109.37-22.65-96.94-9.92-209.51 5.67-284.76 71.19-16.58-25.48 64.74-79.36 85.43-90.61 84.17-45.77 183.79-52.62 277.64-40.77l1.94-391.55Z" class="cls-1"/></g></svg>