<svg xmlns="http://www.w3.org/2000/svg" xml:space="preserve" style="fill-rule:evenodd;clip-rule:evenodd;stroke-linejoin:round;stroke-miterlimit:2" viewBox="0 0 14 14"><g transform="translate(-11.654 -8.865)scale(.74248)"><circle cx="25.124" cy="21.368" r="9.428" style="fill:#484848"/><clipPath id="a"><circle cx="25.124" cy="21.368" r="9.428"/></clipPath><g clip-path="url(#a)"><path d="M26.224 53v-5.741c11.317 0 20.524-9.273 20.524-20.672 0-11.398-9.207-20.672-20.524-20.672S5.7 15.189 5.7 26.587H0C0 12.023 11.764.174 26.224.174s26.224 11.849 26.224 26.413S40.684 53 26.224 53" style="fill:#fff;fill-rule:nonzero" transform="translate(16.911 13.041)scale(.31319)"/><path d="M13.489 27.003h-5.7c0-10.398 8.269-18.858 18.433-18.858v5.831c-7.021 0-12.733 5.844-12.733 13.027" style="fill:#fff;fill-rule:nonzero" transform="translate(16.911 13.041)scale(.31319)"/><path d="M36.861 27.003h-5.699c0-2.788-2.217-5.055-4.942-5.055s-4.942 2.267-4.942 5.055h-5.7c0-6.003 4.774-10.887 10.642-10.887S36.861 21 36.861 27.003" style="fill:#fff;fill-rule:nonzero" transform="translate(16.911 13.041)scale(.31319)"/></g></g></svg>