<svg xmlns="http://www.w3.org/2000/svg" width="942.89" height="978.22"><path d="M836.83 34.59c1.62 9.12-23.1-24.33-40.01-26.81-37.83-5.56-75.85 3.69-107.42 24.54-38.25 25.27-238.39 247.36-293.26 297.36l-8.72 1.08c-117.24-7.24-281.17 45.89-356.53-68.34C-40.1 154.82 34.2 17.73 141.81 4.34 224.28-5.93 631.82 7.58 769.28.12c7.31-.4 14.63.2 21.75 1.91 15.8 3.8 28.36 24.5 45.81 32.57Z" style="fill:#f78d2a"/><path d="M655.05 59.37C681.77 43.83 711.4-8.92 808.69 5.71c34.49 5.19 75.28 33.88 103.8 63.72 46.6 48.75 34.08 146.98-.3 205.32-33.27 56.46-301.87 301.33-360.53 377.05l-7.26 2.15c-54.87 50-256.47 271.02-294.72 296.29-31.57 20.85-54.23 31.73-92.06 26.17-16.92-2.49.36 4.52-58.66-10.14-109.29-50.55-131.89-198.66-48.53-283.6C168.47 570.14 278.09 448.72 392.5 332.85c45.46-46.04 239.15-251.99 262.56-273.48" style="fill:#f2682d"/><path d="M176.46 977.85c23.64-3.19 41.65-6.76 73.21-27.61 38.25-25.27 239.85-246.29 294.72-296.29l7.26-2.15c117.24 7.24 281.17-45.89 356.53 68.34 70.99 107.61-3.31 244.7-110.92 258.09" style="fill:#e64e30"/></svg>