<svg xmlns="http://www.w3.org/2000/svg" id="UnderConstruction" data-name="UnderConstruction"
  viewBox="0 0 717.12 231.94">
  <defs>
    <clipPath id="clippath">
      <path d="M566.11 106.3v-.25l-22-22v22.25z" class="cls-2" />
    </clipPath>
    <clipPath id="clippath-1">
      <path d="M566.36 106.05h-.25l-22-22h22.25z" class="cls-2" />
    </clipPath>
    <clipPath id="clippath-2">
      <path d="M559.72 106.05h.25l22-22h-22.25z" class="cls-2" />
    </clipPath>
    <clipPath id="clippath-3">
      <path d="M559.97 106.3v-.25l22-22v22.25z" class="cls-2" />
    </clipPath>
    <clipPath id="clippath-4">
      <path d="M559.97 99.66v.25l22 22V99.66z" class="cls-2" />
    </clipPath>
    <clipPath id="clippath-5">
      <path d="M559.72 99.91h.25l22 22h-22.25z" class="cls-2" />
    </clipPath>
    <clipPath id="clippath-6">
      <path d="M566.36 99.91h-.25l-22 22h22.25z" class="cls-2" />
    </clipPath>
    <clipPath id="clippath-7">
      <path d="M566.11 99.66v.25l-22 22V99.66z" class="cls-2" />
    </clipPath>
    <clipPath id="clippath-8">
      <rect width="85" height="20.5" x="565" y="175.68" class="cls-2" rx="3.83" ry="3.83" />
    </clipPath>
    <clipPath id="clippath-9">
      <path d="m313.23 186.605 85.216-22.515 1.257 4.757-85.216 22.515z" class="cls-2" />
    </clipPath>
    <style>
      :root {
        --outline1:#201600;
        --outline2:#231f20;
        --grey:#bac5c7;
        --lightgrey:#cdd5d7;
        --outline3:#22272e;
        --outline4:#272425;
        --blue:#00a5d9;
        --orange:#ffb342;
        --white:#fff
      }
      @media (prefers-color-scheme:dark) {
        :root {
          --outline1: #adadad;
          --outline2: #898989;
          --grey: #454545;
          --lightgrey: #b2b2b2;
          --outline3: #ddd;
          --outline4: #7c7c7c;
          --blue: #0091b5;
          --orange: #ffb342;
          --white: #e0e0e0
        }
      }

      .cls-2 {
        fill: none
      }

      .cls-10,
      .cls-11,
      .cls-2,
      .cls-3,
      .cls-4,
      .cls-5,
      .cls-6,
      .cls-7,
      .cls-8,
      .cls-9 {
        stroke-width: 0
      }

      .cls-3 {
        fill: var(--outline1)
      }

      .cls-4 {
        fill: var(--grey)
      }

      .cls-5 {
        fill: var(--outline3)
      }

      .cls-6 {
        fill: var(--orange)
      }

      .cls-7 {
        fill: var(--outline4)
      }

      .cls-8 {
        fill: var(--lightgrey)
      }

      .cls-9 {
        fill: var(--blue)
      }

      .cls-10 {
        fill: var(--white)
      }

      .cls-11 {
        fill: var(--outline2)
      }
    </style>
  </defs>
  <rect width="7.94" height="16.58" x="270.84" y="102.98" class="cls-6" rx="1.75" ry="1.75" />
  <path d="M325.03 116.17h-46.46v-9.81h46.46l5.98 4.9zm-44.46-2h43.75l3.54-2.91-3.54-2.9h-43.75z" class="cls-11" />
  <path
    d="m283.128 107.554 1.955-.422 1.687 7.81-1.955.422zm4.959-.005 1.955-.422 1.687 7.81-1.955.422zm4.958-.007 1.955-.423 1.687 7.81-1.955.422zm4.958.002 1.955-.422 1.687 7.81-1.955.422zm4.948.005 1.955-.422 1.687 7.81-1.955.422zm4.959-.007 1.954-.423 1.688 7.81-1.955.423zm4.958.002 1.955-.422 1.687 7.81-1.955.422zm4.968.003 1.955-.422 1.687 7.81-1.955.422zm-46.996 2.723h2.92v2h-2.92z"
    class="cls-11" />
  <path d="M216.62 216.63h-83v-115z" class="cls-4" />
  <path d="M181.05 198.33H151.1v-41.5z" class="cls-10" />
  <path
    d="M133.62 207.37h9.67v2h-9.67zm0-7.9h6.17v2h-6.17zm0-7.89h9.67v2h-9.67zm0-7.89h6.17v2h-6.17zm0-7.89h9.67v2h-9.67zm0-7.9h6.17v2h-6.17zm0-7.89h9.67v2h-9.67zm0-7.89h6.17v2h-6.17zm0-7.89h9.67v2h-9.67zm0-7.89h6.17v2h-6.17zm0-7.9h9.67v2h-9.67zm0-7.89h6.17v2h-6.17z"
    class="cls-11" />
  <path d="M168.99 113.07v89.6h-9.86v-89.6z" class="cls-6" />
  <path
    d="M170 203.68h-11.86v-91.6H170zm-9.87-2h7.86v-87.6h-7.86zm7.31 16.16h-6.75c-1.41 0-2.56-1.15-2.56-2.56v-3.73c0-1.41 1.15-2.56 2.56-2.56h6.75c1.41 0 2.56 1.15 2.56 2.56v3.73c0 1.41-1.15 2.56-2.56 2.56m-6.75-6.85a.56.56 0 0 0-.56.56v3.73c0 .31.25.56.56.56h6.75c.31 0 .56-.25.56-.56v-3.73a.56.56 0 0 0-.56-.56z"
    class="cls-11" />
  <path d="M158.22 212.58v-7.71h11.61v7.71z" class="cls-9" />
  <path d="M163.07 113.9h2v89.6h-2z" class="cls-11" />
  <path d="M170 114.08h-11.86v-4.35l5.93-12.07 5.93 12.07zm-9.87-2h7.86v-1.88l-3.93-8-3.93 8zM0 216.25h717.12v2H0z"
    class="cls-11" />
  <path d="M500.62 77.37h65.81v139.07h-65.81z" class="cls-8" />
  <path
    d="M514.2 94.57h38.65v1H514.2zm0 17.22h38.65v1H514.2zm0 17.23h38.65v1H514.2zm0 17.23h38.65v1H514.2zm0 17.23h38.65v1H514.2zm0 17.23h38.65v1H514.2zm0 17.23h38.65v1H514.2z"
    class="cls-10" />
  <path d="M529.34 60.14h8.38v17.23h-8.38zm40.24 86.61h45.17v69.69h-45.17z" class="cls-8" />
  <path
    d="M582.26 158.79h6.05v2h-6.05zm13.74 0h6.05v2H596zm-13.74 15.75h6.05v2h-6.05zm13.74 0h6.05v2H596zm-13.74 15.76h6.05v2h-6.05zm13.74 0h6.05v2H596z"
    class="cls-10" />
  <path d="M439.88 67.95 497.2 0v216.44h-57.32z" class="cls-8" />
  <path
    d="M468.54 56.68h15.41v6.93h-15.41zm0 23.05h15.41v6.93h-15.41zm0 23.05h15.41v6.93h-15.41zm0 23.05h15.41v6.93h-15.41zm0 23.04h15.41v6.93h-15.41zm0 23.05h15.41v6.93h-15.41zm0 23.05h15.41v6.93h-15.41z"
    class="cls-10" />
  <path d="m397.33 109.69-39.1 42.24v64.41h78.2v-64.41z" class="cls-8" />
  <path d="M367.72 186.42h16.9v17.11h-16.9zm0-26.42h16.9v17.11h-16.9z" class="cls-10" />
  <path d="M416.92 114.86h11.86v29.33h-11.86zm-99.72 68.99h41.03v32.48H317.2z" class="cls-8" />
  <path d="M321.64 202.72v-10.44h17.11v10.44z" class="cls-10" />
  <rect width="15.88" height="8.86" x="533.91" y="203.91" class="cls-10" rx="3.13" ry="3.13"
    transform="rotate(-90 541.855 208.345)" />
  <path
    d="M543.16 217.28h-2.61c-2.28 0-4.13-1.85-4.13-4.13v-9.62c0-2.28 1.85-4.13 4.13-4.13h2.61c2.28 0 4.13 1.85 4.13 4.13v9.62c0 2.28-1.85 4.13-4.13 4.13m-2.61-15.88c-1.17 0-2.13.95-2.13 2.13v9.62c0 1.17.95 2.13 2.13 2.13h2.61c1.17 0 2.13-.95 2.13-2.13v-9.62c0-1.17-.95-2.13-2.13-2.13z"
    class="cls-11" />
  <path d="M537.43 193.74v-8.96h8.86v8.96z" class="cls-10" />
  <path d="M547.28 194.74h-10.86v-10.96h10.86zm-8.86-2h6.86v-6.96h-6.86z" class="cls-11" />
  <path d="M536.22 212.55v-23.8h11.28v23.8z" class="cls-6" />
  <path d="M538.7 184.78v-8.09h6.31v8.09z" class="cls-10" />
  <path d="M546.01 185.78h-8.31v-10.09h8.31zm-6.31-2h4.31v-6.09h-4.31z" class="cls-11" />
  <path d="M538.33 191.83h2v17.88h-2z" class="cls-10" />
  <circle cx="541.85" cy="158.51" r="18.7" class="cls-10" />
  <path
    d="M541.85 178.2c-10.86 0-19.7-8.84-19.7-19.7s8.84-19.7 19.7-19.7 19.7 8.84 19.7 19.7-8.84 19.7-19.7 19.7m0-37.39c-9.76 0-17.7 7.94-17.7 17.7s7.94 17.7 17.7 17.7 17.7-7.94 17.7-17.7-7.94-17.7-17.7-17.7"
    class="cls-11" />
  <circle cx="541.85" cy="158.51" r="14.43" class="cls-9" transform="rotate(-77.34 541.869 158.504)" />
  <path
    d="M531.87 158.51h-2c0-6.61 5.37-11.98 11.98-11.98v2c-5.5 0-9.98 4.48-9.98 9.98m-353.25 9.69h28.34c1.18 0 2.14.96 2.14 2.14v44.49c0 1.18-.96 2.14-2.14 2.14h-28.34c-1.18 0-2.14-.96-2.14-2.14v-44.49c0-1.18.96-2.14 2.14-2.14"
    class="cls-10" />
  <path
    d="M206.96 217.96h-28.34c-1.73 0-3.14-1.41-3.14-3.14v-44.49c0-1.73 1.41-3.14 3.14-3.14h28.34c1.73 0 3.14 1.41 3.14 3.14v44.49c0 1.73-1.41 3.14-3.14 3.14m-28.34-48.76c-.63 0-1.14.51-1.14 1.14v44.49c0 .63.51 1.14 1.14 1.14h28.34c.63 0 1.14-.51 1.14-1.14v-44.49c0-.63-.51-1.14-1.14-1.14z"
    class="cls-11" />
  <path d="M179.11 174.8h27.36v6.49h-27.36z" class="cls-9" />
  <path
    d="M179.11 186.27h4.66v2h-4.66zm7.56.03h4.66v2h-4.66zm7.57 0h4.66v2h-4.66zm7.57 0h4.66v2h-4.66zm-22.7 5.16h4.66v2h-4.66zm7.56.03h4.66v2h-4.66zm7.57 0h4.66v2h-4.66zm7.57 0h4.66v2h-4.66zm-22.7 5.15h4.66v2h-4.66zm7.56.03h4.66v2h-4.66zm7.57 0h4.66v2h-4.66zm7.57 0h4.66v2h-4.66zm-22.7 5.16h4.66v2h-4.66zm7.56.03h4.66v2h-4.66zm7.57 0h4.66v2h-4.66zm7.57 0h4.66v2h-4.66zm-22.7 5.15h4.66v2h-4.66zm7.56.04h4.66v2h-4.66zm7.57 0h4.66v2h-4.66zm7.57 0h4.66v2h-4.66zm-25.33 4.94h32.61v2h-32.61z"
    class="cls-11" />
  <path d="M402.88 88.87h7.99v7.99h-7.99z" class="cls-6" />
  <path
    d="M418.29 69.26h17.99v2h-17.99zm23.06 0h3.69v2h-3.69zm-13.72 8.5h24.53v2h-24.53zm251.344 61.001 1.414-1.414 2.518 2.517-1.414 1.414zm5.226 5.254 1.414-1.414 2.517 2.517-1.415 1.414zm-5.203 1.056 2.517-2.517 1.414 1.414-2.517 2.517zm5.17-5.171 2.517-2.518 1.414 1.415-2.517 2.517zM381.62 73.73l-.95-1.64s.11-.06.27-.17c.08-.06.16-.12.26-.19.09-.08.18-.16.27-.25.08-.09.17-.19.25-.27.07-.09.14-.18.19-.26.11-.16.17-.27.17-.27l1.64.95s-.09.16-.25.4c-.08.11-.18.24-.29.39-.12.13-.24.27-.37.41-.14.13-.28.25-.41.37-.14.11-.27.2-.39.29-.23.16-.4.25-.4.25Zm-5.74 0 .95-1.64s.03.02.07.05c.05.03.12.06.2.1s.18.09.3.13c.11.04.23.09.35.11.24.07.49.1.68.12.19.01.32.02.32.02v1.9s-.19 0-.47-.02c-.28-.03-.66-.07-1.02-.18-.18-.04-.36-.11-.53-.17s-.32-.12-.44-.19c-.26-.12-.42-.22-.42-.22ZM373 68.76h1.9s0 .13.02.32a4 4 0 0 0 .23 1.03c.04.11.08.21.13.3.04.08.07.16.1.2.03.05.05.07.05.07l-1.64.95s-.1-.16-.22-.42c-.06-.13-.13-.28-.19-.44-.06-.17-.13-.34-.17-.53-.1-.36-.15-.74-.18-1.02-.01-.28-.02-.47-.02-.47Zm2.88-4.98.95 1.64s-.11.06-.27.17c-.08.06-.16.12-.26.19-.09.08-.18.16-.27.25-.08.09-.17.19-.25.27-.07.09-.14.18-.19.26-.11.16-.17.27-.17.27l-1.64-.95s.09-.16.25-.4c.08-.11.18-.24.29-.39.12-.13.24-.27.37-.41.14-.13.28-.25.41-.37.14-.11.27-.2.39-.29.23-.16.4-.25.4-.25Zm5.74 0-.95 1.64s-.03-.02-.07-.05c-.05-.03-.12-.06-.2-.1s-.18-.09-.3-.13c-.11-.04-.23-.09-.35-.11-.24-.07-.49-.1-.68-.12-.19-.01-.32-.02-.32-.02v-1.9s.19 0 .47.02c.28.03.66.07 1.02.18.18.04.36.11.53.17s.32.12.44.19c.26.12.42.22.42.22Zm2.88 4.98h-1.9s0-.13-.02-.32a4 4 0 0 0-.23-1.03c-.04-.11-.08-.21-.13-.3-.04-.08-.07-.16-.1-.21s-.05-.07-.05-.07l1.64-.95s.1.16.22.42c.06.13.13.28.19.44.06.17.13.34.17.53.1.36.15.74.18 1.02.01.28.02.47.02.47ZM46.6 101.961l1.415-1.414 2.517 2.518-1.415 1.414zm5.179 5.179 1.414-1.415 2.517 2.518-1.414 1.414zm-5.169 1.089 2.517-2.518 1.414 1.415-2.517 2.517zm5.163-5.179 2.517-2.517 1.414 1.414-2.517 2.517z"
    class="cls-11" />
  <path d="m305.819 133.187 3.91-3.91 3.91 3.91-3.91 3.91z" class="cls-10" />
  <path d="m309.73 138.52-5.32-5.32 5.32-5.32 5.32 5.32zm-2.49-5.32 2.5 2.5 2.5-2.5-2.5-2.5zM649 111.97h2v10.87h-2z"
    class="cls-5" />
  <path d="M644.57 116.4h10.87v2h-10.87z" class="cls-5" />
  <path d="M19.65 148.17h-2a.49.49 0 0 0-.98 0h-2c0-1.38 1.12-2.49 2.49-2.49s2.49 1.12 2.49 2.49" class="cls-11" />
  <path
    d="M14.17 150.46a2.49 2.49 0 0 1-2.49-2.49h2a.49.49 0 0 0 .98 0h2a2.49 2.49 0 0 1-2.49 2.49m5.98 0a2.49 2.49 0 0 1-2.49-2.49h2a.49.49 0 0 0 .98 0h2a2.49 2.49 0 0 1-2.49 2.49m5.97 0a2.49 2.49 0 0 1-2.49-2.49h2a.49.49 0 0 0 .98 0h2a2.49 2.49 0 0 1-2.49 2.49"
    class="cls-11" />
  <path
    d="M25.63 148.17h-2a.49.49 0 0 0-.98 0h-2c0-1.38 1.12-2.49 2.49-2.49s2.49 1.12 2.49 2.49m5.98 0h-2a.49.49 0 0 0-.98 0h-2c0-1.38 1.12-2.49 2.49-2.49s2.49 1.12 2.49 2.49"
    class="cls-11" />
  <path d="M176.85 74.5v-5.3l4.59 2.65 4.59 2.65-4.59 2.66-4.59 2.65z" class="cls-8" />
  <path
    d="M554.11 104.31h2v2.67h-2zm0-5.34h2v2.67h-2zm4.93-4.92h2.67v2h-2.67zm5.34 0h2.67v2h-2.67zm5.59 4.92h2v2.67h-2zm0 5.34h2v2.67h-2zm-5.59 5.6h2.67v2h-2.67zm-5.34 0h2.67v2h-2.67z"
    class="cls-11" />
  <path d="M554.11 93.8h2v2.5h-2z" class="cls-11" style="clip-path:url(#clippath)" />
  <path d="M553.86 94.05h2.5v2h-2.5z" class="cls-11" style="clip-path:url(#clippath-1)" />
  <path d="M569.72 94.05h2.5v2h-2.5z" class="cls-11" style="clip-path:url(#clippath-2)" />
  <path d="M569.97 93.8h2v2.5h-2z" class="cls-11" style="clip-path:url(#clippath-3)" />
  <path d="M569.97 109.66h2v2.5h-2z" class="cls-11" style="clip-path:url(#clippath-4)" />
  <path d="M569.72 109.91h2.5v2h-2.5z" class="cls-11" style="clip-path:url(#clippath-5)" />
  <path d="M553.86 109.91h2.5v2h-2.5z" class="cls-11" style="clip-path:url(#clippath-6)" />
  <path d="M554.11 109.66h2v2.5h-2z" class="cls-11" style="clip-path:url(#clippath-7)" />
  <path d="M568.97 93.05h4v4h-4z" class="cls-10" />
  <path d="M573.97 98.05h-6v-6h6zm-4-2h2v-2h-2z" class="cls-11" />
  <path d="M568.97 108.91h4v4h-4z" class="cls-10" />
  <path d="M573.97 113.91h-6v-6h6zm-4-2h2v-2h-2z" class="cls-11" />
  <path d="M553.11 108.91h4v4h-4z" class="cls-10" />
  <path d="M558.11 113.91h-6v-6h6zm-4-2h2v-2h-2z" class="cls-11" />
  <path d="M553.11 93.05h4v4h-4z" class="cls-10" />
  <path
    d="M558.11 98.05h-6v-6h6zm-4-2h2v-2h-2zM99.1 104.09h4.54v2H99.1zm6.95 0h4.54v2h-4.54zm7.07 0h4.54v2h-4.54zm-37.93 9.23h21.6v2h-21.6zm23.91 0h4.54v2H99.1zm395.73-66.06h-2c0-.27-.22-.49-.49-.49s-.5.22-.5.49h-2c0-1.38 1.12-2.49 2.5-2.49s2.49 1.12 2.49 2.49"
    class="cls-11" />
  <path
    d="M489.35 49.56c-1.38 0-2.5-1.12-2.5-2.49h2c0 .27.22.49.5.49s.49-.22.49-.49h2a2.49 2.49 0 0 1-2.49 2.49m5.97 0c-1.38 0-2.5-1.12-2.5-2.49h2c0 .27.22.49.5.49s.49-.22.49-.49h2a2.49 2.49 0 0 1-2.49 2.49m5.98 0a2.49 2.49 0 0 1-2.49-2.49h2c0 .27.22.49.49.49s.5-.22.5-.49h2c0 1.38-1.12 2.49-2.5 2.49"
    class="cls-11" />
  <path
    d="M500.81 47.26h-2c0-.27-.22-.49-.5-.49s-.5.22-.5.49h-2c0-1.38 1.12-2.49 2.5-2.49s2.5 1.12 2.5 2.49m5.98 0h-2c0-.27-.22-.49-.5-.49s-.49.22-.49.49h-2c0-1.38 1.12-2.49 2.49-2.49s2.5 1.12 2.5 2.49"
    class="cls-11" />
  <path
    d="M42.34 224.9h4.41v2h-4.41zm8.82 0h4.41v2h-4.41zm8.81 0h4.41v2h-4.41zm8.81 0h4.41v2h-4.41zm8.82 0h4.41v2H77.6zm8.81 0h4.41v2h-4.41zm8.81 0h4.41v2h-4.41zm8.82 0h4.41v2h-4.41zm8.81 0h4.41v2h-4.41zm8.81 0h4.41v2h-4.41zm8.82 0h4.41v2h-4.41zm8.81 0h4.41v2h-4.41zm8.81 0h4.41v2h-4.41zm8.82 0h4.41v2h-4.41zm8.81 0h4.41v2h-4.41zm8.82 0h4.41v2h-4.41zm8.81 0h4.41v2h-4.41zm8.81 0h4.41v2h-4.41zm8.82 0h4.41v2h-4.41zm8.81 0h4.41v2h-4.41zm8.81 0h4.41v2h-4.41zm8.82 0h4.41v2h-4.41z"
    class="cls-3" />
  <path d="M192.12 229.94h196.12v2H192.12z" class="cls-11" />
  <path
    d="M517.95 229.94h4.51v2h-4.51zm9.02 0h4.51v2h-4.51zm9.02 0h4.51v2h-4.51zm9.02 0h4.51v2h-4.51zm9.01 0h4.51v2h-4.51zm9.02 0h4.51v2h-4.51zm9.02 0h4.51v2h-4.51zm9.02 0h4.51v2h-4.51zm9.02 0h4.51v2h-4.51zm9.01 0h4.51v2h-4.51zm9.02 0h4.51v2h-4.51zm9.02 0h4.51v2h-4.51zm9.02 0h4.51v2h-4.51zm9.01 0h4.51v2h-4.51zm9.02 0h4.51v2h-4.51zm9.02 0h4.51v2h-4.51zm9.02 0h4.51v2h-4.51zm9.01 0h4.51v2h-4.51zm9.02 0h4.51v2h-4.51z"
    class="cls-3" />
  <path
    d="M354.44 224.9h196.12v2H354.44zm-254.11-7.69H63.01c-3.25 0-5.89-2.64-5.89-5.89v-51.08c0-3.25 2.64-5.89 5.89-5.89h37.32c3.25 0 5.89 2.64 5.89 5.89v51.08c0 3.25-2.64 5.89-5.89 5.89m-37.32-60.86c-2.14 0-3.89 1.74-3.89 3.89v51.08c0 2.14 1.74 3.89 3.89 3.89h37.32c2.14 0 3.89-1.74 3.89-3.89v-51.08c0-2.14-1.74-3.89-3.89-3.89z"
    class="cls-11" />
  <path d="M61.56 159.52h40.21v52.52H61.56z" class="cls-4" />
  <path d="M65.77 163.3h31.8v44.95h-31.8z" class="cls-10" />
  <path d="M98.57 209.26h-33.8v-46.95h33.8zm-31.8-2h29.8v-42.95h-29.8z" class="cls-11" />
  <path d="M73.53 154.75h16.28v10.55H73.53z" class="cls-9" />
  <path d="M90.81 166.3H72.53v-12.55h18.28zm-16.28-2h14.28v-8.55H74.53z" class="cls-11" />
  <path d="M85.8 154.75a4.131 4.131 0 0 1-8.26 0 4.131 4.131 0 0 1 8.26 0" class="cls-9" />
  <path
    d="M81.67 159.88c-2.83 0-5.13-2.3-5.13-5.13s2.3-5.13 5.13-5.13 5.13 2.3 5.13 5.13-2.3 5.13-5.13 5.13m0-8.26c-1.72 0-3.13 1.4-3.13 3.13s1.4 3.13 3.13 3.13 3.13-1.4 3.13-3.13-1.4-3.13-3.13-3.13M73 178.99l-3.13-2.81 1.34-1.48 1.47 1.32 3.47-4.83 1.63 1.17zm6.26-5.35h13.53v2H79.26zM73 190.27l-3.13-2.81 1.34-1.49 1.47 1.32 3.47-4.83 1.63 1.17zm6.26-5.36h13.53v2H79.26zM73 201.28l-3.13-2.81 1.34-1.49 1.47 1.32 3.47-4.83 1.63 1.17zm6.26-5.36h13.53v2H79.26z"
    class="cls-11" />
  <path d="m24.9 202.76 1.54-6.13 14.28-7.02.95 4.9zm.46 10.78-2.13-4.33 18.97-9.32 1.62 4.57z" class="cls-6" />
  <path d="M46.69 212.99H21.88l6.67-30.83h11.47zm-22.33-2h19.86l-5.8-26.83h-8.25l-5.8 26.83Z" class="cls-11" />
  <path d="M20.62 211.99h27.33v4.67H20.62z" class="cls-10" />
  <path d="M48.95 217.66H19.62v-6.67h29.33zm-27.33-2h25.33v-2.67H21.62zm9.58-29h6.17v2H31.2z" class="cls-11" />
  <path d="M694.28 217.25h-37.03l.85-11.33h35.33z" class="cls-10" />
  <path d="M695.36 218.25h-39.19l1-13.33h37.19zm-37.03-2h34.88l-.7-9.33h-33.48z" class="cls-11" />
  <path
    d="M662.27 171.12h26.96c1.55 0 2.83 1.22 2.89 2.77l1.17 27.87a2.897 2.897 0 0 1-2.89 3.02h-29.31a2.89 2.89 0 0 1-2.89-3.02l1.17-27.87a2.894 2.894 0 0 1 2.89-2.77Z"
    class="cls-9" />
  <path
    d="M687.51 201.95c-.53 0-.98-.42-1-.96l-1-24.25c-.02-.55.41-1.02.96-1.04.54-.02 1.02.41 1.04.96l1 24.25c.02.55-.41 1.02-.96 1.04z"
    class="cls-10" />
  <path d="M681.17 210.09h4.75v6.33h-4.75zm-389.9-80.42h2v40.08h-2z" class="cls-11" />
  <path d="M287.01 168.04h10.52v4.64h-10.52z" class="cls-9" />
  <path d="M283.45 172.37v41.39a2.4 2.4 0 0 0 2.4 2.4h12.84a2.4 2.4 0 0 0 2.4-2.4v-41.39z" class="cls-9" />
  <path
    d="M283.45 171.37h17.64v2h-17.64zm4.96 6.26h2v34.2h-2zm5.72 0h2v34.2h-2zm-1.86-46.26-4.59-6.32 1.52-9.96h6.13l1.52 9.96-4.59 6.32Zm-2.48-6.83 2.48 3.43 2.49-3.43-1.14-7.45h-2.69zm301.74 8.22h2v85.57h-2zm14.54 0h2v85.57h-2z"
    class="cls-11" />
  <path
    d="M597 137.63h10.07v2H597zm0 7.32h10.07v2H597zm0 7.33h10.07v2H597zm0 7.33h10.07v2H597zm0 7.32h10.07v2H597zm0 7.33h10.07v2H597zm0 7.33h10.07v2H597zm0 7.32h10.07v2H597zm0 7.33h10.07v2H597zm0 7.33h10.07v2H597zm0 7.32h10.07v2H597z"
    class="cls-11" />
  <path d="M573.67 166.18h3.67v50.17h-3.67z" class="cls-10" />
  <path d="M578.33 217.35h-5.67v-52.17h5.67zm-3.67-2h1.67v-48.17h-1.67z" class="cls-11" />
  <path d="M637.67 166.18h3.67v50.17h-3.67z" class="cls-10" />
  <path d="M642.33 217.35h-5.67v-52.17h5.67zm-3.66-2h1.67v-48.17h-1.67z" class="cls-11" />
  <rect width="85" height="20.5" x="565" y="175.68" class="cls-10" rx="3.83" ry="3.83" />
  <path
    d="M646.17 197.18h-77.33c-2.67 0-4.83-2.17-4.83-4.83v-12.83a4.84 4.84 0 0 1 4.83-4.83h77.33a4.84 4.84 0 0 1 4.83 4.83v12.83c0 2.67-2.17 4.83-4.83 4.83m-77.34-20.5c-1.56 0-2.83 1.27-2.83 2.83v12.83c0 1.56 1.27 2.83 2.83 2.83h77.33c1.56 0 2.83-1.27 2.83-2.83v-12.83c0-1.56-1.27-2.83-2.83-2.83z"
    class="cls-11" />
  <g style="clip-path:url(#clippath-8)">
    <path d="m575.919 171.887 5.804 4.209-17.318 23.881-5.805-4.21z" class="cls-6" />
    <path d="m564.62 201.37-7.42-5.38 18.49-25.5 7.42 5.38zm-4.63-5.82 4.18 3.03 16.14-22.26-4.18-3.03-16.15 22.26Z"
      class="cls-11" />
    <path d="m594.458 171.881 5.804 4.21-17.319 23.88-5.804-4.209z" class="cls-6" />
    <path d="m583.16 201.37-7.42-5.38 18.49-25.5 7.42 5.38zm-4.63-5.82 4.18 3.03 16.14-22.26-4.18-3.03-16.15 22.26Z"
      class="cls-11" />
    <path d="m612.978 171.89 5.805 4.209-17.32 23.881-5.804-4.21z" class="cls-6" />
    <path d="m601.69 201.37-7.42-5.38 18.49-25.5 7.42 5.38zm-4.63-5.82 4.18 3.03 16.14-22.26-4.18-3.03-16.15 22.26Z"
      class="cls-11" />
    <path d="m631.527 171.884 5.804 4.21-17.319 23.88-5.804-4.209z" class="cls-6" />
    <path d="m620.23 201.37-7.42-5.38 18.49-25.5 7.42 5.38zm-4.63-5.82 4.18 3.03 16.14-22.26-4.18-3.03-16.15 22.26Z"
      class="cls-11" />
    <path d="m650.058 171.883 5.804 4.209-17.319 23.881-5.804-4.21z" class="cls-6" />
    <path d="m638.76 201.37-7.42-5.38 18.49-25.5 7.42 5.38zm-4.63-5.82 4.18 3.03 16.14-22.26-4.18-3.03-16.15 22.26Z"
      class="cls-11" />
  </g>
  <path
    d="M646.17 197.18h-77.33c-2.67 0-4.83-2.17-4.83-4.83v-12.83a4.84 4.84 0 0 1 4.83-4.83h77.33a4.84 4.84 0 0 1 4.83 4.83v12.83c0 2.67-2.17 4.83-4.83 4.83m-77.34-20.5c-1.56 0-2.83 1.27-2.83 2.83v12.83c0 1.56 1.27 2.83 2.83 2.83h77.33c1.56 0 2.83-1.27 2.83-2.83v-12.83c0-1.56-1.27-2.83-2.83-2.83z"
    class="cls-11" />
  <path d="M579.58 166.18c0 2.26-1.83 4.08-4.08 4.08s-4.08-1.83-4.08-4.08 1.83-4.08 4.08-4.08 4.08 1.83 4.08 4.08"
    class="cls-9" />
  <path
    d="M575.5 171.27c-2.8 0-5.08-2.28-5.08-5.08s2.28-5.08 5.08-5.08 5.08 2.28 5.08 5.08-2.28 5.08-5.08 5.08m0-8.17c-1.7 0-3.08 1.38-3.08 3.08s1.38 3.08 3.08 3.08 3.08-1.38 3.08-3.08-1.38-3.08-3.08-3.08"
    class="cls-11" />
  <path d="M643.58 166.18c0 2.26-1.83 4.08-4.08 4.08s-4.08-1.83-4.08-4.08 1.83-4.08 4.08-4.08 4.08 1.83 4.08 4.08"
    class="cls-9" />
  <path
    d="M639.5 171.27c-2.8 0-5.08-2.28-5.08-5.08s2.28-5.08 5.08-5.08 5.08 2.28 5.08 5.08-2.28 5.08-5.08 5.08m0-8.17c-1.7 0-3.08 1.38-3.08 3.08s1.38 3.08 3.08 3.08 3.08-1.38 3.08-3.08-1.38-3.08-3.08-3.08m-65-9.72h2v5h-2zm4.647 5.034 3.536-3.536 1.414 1.414-3.536 3.536zm-12.159-2.123 1.414-1.414 3.536 3.535-1.414 1.414zm71.462-2.911h2v5h-2zm4.647 5.034 3.535-3.535 1.414 1.414-3.535 3.535zm-12.149-2.103 1.414-1.414 3.536 3.535-1.414 1.415z"
    class="cls-11" />
  <path
    d="M102.16 216.57c-2.32 0-4.41-1.2-5.57-3.21a6.38 6.38 0 0 1 0-6.43l21.71-37.6c1.16-2.01 3.24-3.21 5.57-3.21s4.41 1.2 5.57 3.21l21.71 37.6a6.38 6.38 0 0 1 0 6.43c-1.16 2.01-3.24 3.21-5.57 3.21h-43.41Z"
    class="cls-10" />
  <path
    d="M145.57 217.57h-43.41c-2.69 0-5.09-1.39-6.43-3.71a7.37 7.37 0 0 1 0-7.43l21.71-37.6c1.34-2.33 3.75-3.71 6.43-3.71s5.09 1.39 6.43 3.71l21.71 37.6a7.37 7.37 0 0 1 0 7.43c-1.34 2.33-3.75 3.71-6.43 3.71Zm-21.7-50.46c-1.96 0-3.72 1.01-4.7 2.71l-21.71 37.6c-.98 1.7-.98 3.73 0 5.43s2.74 2.71 4.7 2.71h43.41c1.96 0 3.72-1.01 4.7-2.71s.98-3.73 0-5.43l-21.71-37.6a5.37 5.37 0 0 0-4.7-2.71Z"
    class="cls-11" />
  <path
    d="m99.33 208.51 21.71-37.6c1.26-2.18 4.4-2.18 5.66 0l21.71 37.6c1.26 2.18-.31 4.9-2.83 4.9h-43.41c-2.52 0-4.09-2.72-2.83-4.9Z"
    class="cls-6" />
  <path
    d="m123.44 202.13-2.02-19.47c0-.08 0-.2-.02-.37-.05-.6-.07-1-.07-1.22 0-.95.23-1.69.68-2.22s1.07-.79 1.87-.79 1.42.26 1.86.79.67 1.27.67 2.22c0 .34 0 .63-.02.87s-.04.48-.07.71l-2.02 19.47h-.85Zm-2.02 4.49c0-.7.24-1.3.71-1.78s1.07-.72 1.79-.72c.67 0 1.25.24 1.74.73s.73 1.08.73 1.77-.24 1.28-.73 1.77-1.07.73-1.74.73-1.28-.25-1.77-.75-.73-1.08-.73-1.76Z"
    class="cls-11" />
  <path d="M358.22 207.42h19.66v9.64h-19.66z" class="cls-6" />
  <path d="M378.89 218.06h-21.66v-11.64h21.66zm-19.67-2h17.66v-7.64h-17.66z" class="cls-11" />
  <path d="M380.72 207.42h19.66v9.64h-19.66z" class="cls-6" />
  <path d="M401.39 218.06h-21.66v-11.64h21.66zm-19.67-2h17.66v-7.64h-17.66z" class="cls-11" />
  <path d="M403.22 207.42h19.66v9.64h-19.66z" class="cls-6" />
  <path d="M423.88 218.06h-21.66v-11.64h21.66zm-19.66-2h17.66v-7.64h-17.66z" class="cls-11" />
  <path d="M391.95 195.28h19.66v9.64h-19.66z" class="cls-6" />
  <path d="M412.61 205.92h-21.66v-11.64h21.66zm-19.66-2h17.66v-7.64h-17.66z" class="cls-11" />
  <path d="M369.59 195.28h19.66v9.64h-19.66z" class="cls-6" />
  <path d="M390.25 205.92h-21.66v-11.64h21.66zm-19.66-2h17.66v-7.64h-17.66z" class="cls-11" />
  <path d="M380.72 183.13h19.66v9.64h-19.66z" class="cls-6" />
  <path
    d="M401.39 193.77h-21.66v-11.64h21.66zm-19.67-2h17.66v-7.64h-17.66zm-154.48-32.09h-8.44c-.55 0-1-.45-1-1v-28.49c0-.55.45-1 1-1h8.44c.55 0 1 .45 1 1v28.49c0 .55-.45 1-1 1m-7.44-2h6.44v-26.49h-6.44z"
    class="cls-11" />
  <path d="M215.39 159.47v54.26c0 1.49.93 2.69 2.07 2.69h11.1c1.15 0 2.07-1.21 2.07-2.69v-54.26h-15.25Z"
    class="cls-6" />
  <path
    d="M215.39 158.47h15.25v2h-15.25zm6.63 7.09h2v45.07h-2zm8.73-35.34h-15.37c-.48 0-.89-.34-.98-.81-.43-2.19-2.35-3.78-4.58-3.78s-4.16 1.59-4.58 3.78c-.09.47-.5.81-.98.81h-4.78c-2.09 0-3.78-1.7-3.78-3.78v-8.35c0-2.09 1.7-3.78 3.78-3.78h4.75c.49 0 .91.36.99.84.36 2.28 2.3 3.93 4.61 3.93s4.24-1.65 4.61-3.93a1 1 0 0 1 .99-.84h15.34c.55 0 1 .45 1 1v2.32c5.76 1.35 10.87 4.45 15.19 9.2.33.36.35.9.05 1.28-.29.38-.82.5-1.25.28-5.09-2.62-9.67-3.15-14-1.62v2.44c0 .55-.45 1-1 1Zm-14.59-2h13.6v-2.13c0-.41.25-.77.63-.93 3.6-1.45 7.33-1.64 11.29-.54-3.34-2.63-7.06-4.38-11.11-5.21-.47-.1-.8-.5-.8-.98v-2.13h-13.54c-.82 2.81-3.39 4.77-6.39 4.77s-5.57-1.96-6.39-4.77h-3.95c-.98 0-1.78.8-1.78 1.78v8.35c0 .98.8 1.78 1.78 1.78h4.01c.89-2.7 3.43-4.59 6.34-4.59s5.45 1.88 6.34 4.59Z"
    class="cls-11" />
  <path d="M431.1 204.58h70.45v12.09H431.1z" class="cls-6" />
  <path
    d="M434.23 204.58h2v5.56h-2zm3.89 0h2v3.47h-2zm3.89 0h2v5.56h-2zm3.9 0h2v3.47h-2zm3.89 0h2v5.56h-2zm3.89 0h2v3.47h-2zm3.9 0h2v5.56h-2zm3.89 0h2v3.47h-2zm3.89 0h2v5.56h-2zm3.9 0h2v3.47h-2zm3.89 0h2v5.56h-2zm3.89 0h2v3.47h-2zm3.9 0h2v5.56h-2zm3.89 0h2v3.47h-2zm3.9 0h2v5.56h-2zm3.89 0h2v3.47h-2zm3.89 0h2v5.56h-2z"
    class="cls-11" />
  <path
    d="m476.35 137.98-5.64-2.89v-12c-4.2 2.08-7.09 6.4-7.09 11.4s2.8 9.19 6.89 11.31v48.36c-4.09 2.12-6.89 6.38-6.89 11.31s2.89 9.32 7.09 11.4v-12l5.64-2.89 5.64 2.89v12c4.2-2.08 7.09-6.4 7.09-11.4s-2.78-9.17-6.86-11.29v-48.39c4.07-2.12 6.86-6.38 6.86-11.29s-2.89-9.32-7.09-11.4v12l-5.64 2.89Z"
    class="cls-10" />
  <path
    d="m471.71 218.49-1.44-.72c-4.72-2.34-7.65-7.05-7.65-12.3 0-4.94 2.62-9.45 6.89-11.9v-47.18a13.7 13.7 0 0 1-6.89-11.9c0-5.25 2.93-9.96 7.65-12.3l1.44-.72v13l4.64 2.38 4.64-2.38v-13l1.44.72c4.72 2.34 7.65 7.05 7.65 12.3 0 4.93-2.61 9.43-6.86 11.88v47.21c4.25 2.46 6.86 6.96 6.86 11.88 0 5.25-2.93 9.96-7.65 12.3l-1.44.72v-13l-4.64-2.38-4.64 2.38v13Zm-2-93.66a11.63 11.63 0 0 0-5.09 9.66c0 4.4 2.43 8.39 6.35 10.42l.54.28v49.58l-.54.28a11.69 11.69 0 0 0-6.35 10.42c0 3.92 1.91 7.49 5.09 9.66v-10.87l6.64-3.41 6.64 3.41v10.87a11.63 11.63 0 0 0 5.09-9.66c0-4.38-2.42-8.37-6.32-10.4l-.54-.28v-49.61l.54-.28c3.9-2.03 6.32-6.02 6.32-10.4 0-3.92-1.91-7.49-5.09-9.66v10.87l-6.64 3.41-6.64-3.41v-10.87Z"
    class="cls-11" />
  <rect width="46.07" height="12.91" x="411.61" y="159.69" class="cls-9" rx="4.19" ry="4.19" />
  <path
    d="M434.53 186.24c-.55 0-1-.45-1-1v-6.35l24.77-4.05v-8.7c0-.55.45-1 1-1s1 .45 1 1v10.4l-24.77 4.05v4.65c0 .55-.45 1-1 1"
    class="cls-11" />
  <path d="M429.44 188.14V211c0 2.87 2.34 5.21 5.21 5.21s5.21-2.35 5.21-5.21v-22.86z" class="cls-10" />
  <path
    d="M434.65 217.21c-3.42 0-6.21-2.79-6.21-6.21v-23.86h12.42V211c0 3.42-2.79 6.21-6.21 6.21m-4.21-28.07V211c0 2.32 1.89 4.21 4.21 4.21s4.21-1.89 4.21-4.21v-21.86z"
    class="cls-11" />
  <path d="M433.53 192.15h2v17.81h-2z" class="cls-11" />
  <path d="m498.58 216.75-1.76-4.26 9.86-30.35 2.84.92zm24.28 0 1.76-4.26-9.85-30.35-2.85.92z" class="cls-9" />
  <path d="M521.47 194.79h-22.02c-.55 0-1-.45-1-1s.45-1 1-1h22.02c.55 0 1 .45 1 1s-.45 1-1 1" class="cls-11" />
  <rect width="1.92" height="4.61" x="509.66" y="191.49" class="cls-6" rx=".81" ry=".81" />
  <rect width="1.92" height="4.61" x="509.66" y="166.85" class="cls-9" rx=".81" ry=".81" />
  <path
    d="M510.62 184.26c-3.81 0-6.9-3.1-6.9-6.9s3.1-6.9 6.9-6.9 6.9 3.1 6.9 6.9-3.1 6.9-6.9 6.9m0-11.81c-2.7 0-4.9 2.2-4.9 4.9s2.2 4.9 4.9 4.9 4.9-2.2 4.9-4.9-2.2-4.9-4.9-4.9M355.52 69.24l-97.96-21.03-48.63 20.97-.8-1.83 49.23-21.23.31.07 98.27 21.1z"
    class="cls-11" />
  <path d="M236.96 209.1h41v8h-41z" class="cls-4" />
  <path d="M278.96 218.1h-43v-10h43zm-41-2h39v-6h-39z" class="cls-11" />
  <path d="M241.13 203.26h32.67v5.83h-32.67z" class="cls-4" />
  <path d="M274.79 210.1h-34.67v-7.83h34.67zm-32.66-2h30.67v-3.83h-30.67z" class="cls-11" />
  <path
    d="m262.61 178.945 1.956-.412 5.166 24.532-1.957.412zm-17.43 24.109 5.166-24.532 1.957.412-5.165 24.532zm19.41 1.206h-14.27v-14.27h14.27zm-12.26-2h10.27v-10.27h-10.27z"
    class="cls-11" />
  <path d="M264.59 192h-14.27v-14.27h14.27zm-12.26-2h10.27v-10.27h-10.27z" class="cls-11" />
  <path d="M264.59 179.73h-14.27v-14.27h14.27zm-12.26-2h10.27v-10.27h-10.27z" class="cls-11" />
  <path d="M264.59 167.47h-14.27V153.2h14.27zm-12.26-2h10.27V155.2h-10.27z" class="cls-11" />
  <path d="M264.59 155.2h-14.27v-14.27h14.27zm-12.26-2h10.27v-10.27h-10.27z" class="cls-11" />
  <path d="M264.59 142.93h-14.27v-14.27h14.27zm-12.26-2h10.27v-10.27h-10.27z" class="cls-11" />
  <path d="M264.59 130.67h-14.27V116.4h14.27zm-12.26-2h10.27V118.4h-10.27z" class="cls-11" />
  <path d="M264.59 118.4h-14.27v-14.27h14.27zm-12.26-2h10.27v-10.27h-10.27z" class="cls-11" />
  <path d="M264.59 106.13h-14.27V91.86h14.27zm-12.26-2h10.27V93.86h-10.27z" class="cls-11" />
  <path d="M264.59 93.87h-14.27V79.6h14.27zm-12.26-2h10.27V81.6h-10.27z" class="cls-11" />
  <path d="M264.59 81.6h-14.27V67.33h14.27zm-12.26-2h10.27V69.33h-10.27z" class="cls-11" />
  <path d="M264.59 69.33h-14.27V55.06h14.27zm-12.26-2h10.27V57.06h-10.27z" class="cls-11" />
  <path
    d="M264.59 69.12h-14.27V55.54l7.13-10.11 7.13 10.11v13.58Zm-12.26-2h10.27V56.17l-5.13-7.27-5.13 7.27v10.95Zm-1.714 135.424 12.268-12.269 1.414 1.415-12.268 12.268zm.008-36.792 12.269-12.268 1.414 1.414-12.268 12.268zm.001-12.259 12.269-12.268 1.414 1.414-12.268 12.268zm-.005-12.266 12.267-12.268 1.415 1.414-12.269 12.268zm-.007-12.287 12.268-12.268 1.414 1.415-12.268 12.268zm.011-12.258 12.268-12.269 1.414 1.414-12.268 12.269zm-.006-12.267 12.268-12.268 1.414 1.414-12.268 12.269zm-.007-12.265 12.269-12.27 1.414 1.415-12.268 12.268z"
    class="cls-11" />
  <path
    d="m250.622 79.88 12.269-12.268 1.414 1.414-12.269 12.268zm-.006-12.266 12.268-12.268 1.415 1.414-12.269 12.268zm.011 122.681 12.268-12.269 1.414 1.415-12.268 12.268zm-.007-12.277 12.269-12.268 1.414 1.414-12.268 12.269zM356.73 89.47h-14.27V79.45h14.27zm-12.27-2h10.27v-6.02h-10.27zm-122.66 2h-14.27V79.45h14.27zm-12.27-2h10.27v-6.02h-10.27z"
    class="cls-11" />
  <path d="M356.73 81.53h-14.27V67.26h14.27zm-12.27-2h10.27V69.26h-10.27z" class="cls-11" />
  <path d="M344.46 81.53h-14.27V67.26h14.27zm-12.27-2h10.27V69.26h-10.27z" class="cls-11" />
  <path d="M332.19 81.53h-14.27V67.26h14.27zm-12.26-2h10.27V69.26h-10.27z" class="cls-11" />
  <path d="M319.93 81.53h-14.27V67.26h14.27zm-12.27-2h10.27V69.26h-10.27z" class="cls-11" />
  <path d="M307.66 81.53h-14.27V67.26h14.27zm-12.27-2h10.27V69.26h-10.27z" class="cls-11" />
  <path d="M295.39 81.53h-14.27V67.26h14.27zm-12.26-2h10.27V69.26h-10.27z" class="cls-11" />
  <path d="M283.13 81.53h-14.27V67.26h14.27zm-12.27-2h10.27V69.26h-10.27z" class="cls-11" />
  <path d="M270.86 81.53h-14.27V67.26h14.27zm-12.26-2h10.27V69.26H258.6z" class="cls-11" />
  <path d="M258.6 81.53h-14.27V67.26h14.27zm-12.27-2h10.27V69.26h-10.27z" class="cls-11" />
  <path d="M246.33 81.53h-14.27V67.26h14.27zm-12.27-2h10.27V69.26h-10.27z" class="cls-11" />
  <path d="M234.06 81.53h-14.27V67.26h14.27zm-12.26-2h10.27V69.26H221.8z" class="cls-11" />
  <path d="M221.8 81.53h-14.27V67.26h14.27zm-12.27-2h10.27V69.26h-10.27z" class="cls-11" />
  <path
    d="m207.829 79.835 12.268-12.269 1.414 1.415-12.268 12.268zm12.266-.006 12.268-12.269 1.414 1.414-12.268 12.269zm12.269.011 12.268-12.269 1.414 1.414-12.268 12.269zm12.266-.007 12.268-12.268 1.415 1.414-12.269 12.268zm12.266-.006 12.269-12.268 1.414 1.414L258.31 81.24zm12.259.011 12.269-12.268 1.414 1.414-12.268 12.268zm12.267-.016 12.268-12.269 1.414 1.415-12.268 12.268zm12.258.011 12.27-12.269 1.413 1.414-12.268 12.269zm12.277-.007 12.268-12.268 1.414 1.414-12.268 12.269zm12.266-.006 12.268-12.268 1.415 1.414-12.269 12.268zm12.259.011 12.269-12.268 1.414 1.414-12.269 12.268zm12.276.004 12.269-12.269 1.414 1.415-12.268 12.268zm.702 3.635h12.27v2h-12.27zm-134.93 0h12.27v2h-12.27z"
    class="cls-11" />
  <path d="M248.36 64.33h21.5v19h-21.5z" class="cls-4" />
  <path d="M270.86 84.33h-23.5v-21h23.5zm-21.5-2h19.5v-17h-19.5zm103.48 34.98h-6.5v-11h6.5zm-4.5-2h2.5v-7h-2.5z"
    class="cls-11" />
  <path
    d="M348.59 88.47h2v18.83h-2zm1 36.84c-2 0-3.62-1.63-3.62-3.62h2a1.62 1.62 0 1 0 1.62-1.62h-1v-3.75h2v1.89c1.51.44 2.62 1.83 2.62 3.48 0 2-1.63 3.62-3.62 3.62"
    class="cls-11" />
  <rect width="97.64" height="38" x="303.16" y="146.13" class="cls-6" rx="10.5" ry="10.5"
    transform="rotate(-14.8 352.053 165.162)" />
  <path
    d="M317.11 194.63c-5.09 0-9.76-3.41-11.12-8.57l-4.34-16.43a11.43 11.43 0 0 1 1.19-8.72c1.55-2.66 4.03-4.56 6.99-5.34l74.08-19.58c6.13-1.62 12.44 2.05 14.06 8.18l4.34 16.43c.78 2.96.36 6.06-1.19 8.72s-4.03 4.56-6.99 5.34l-74.08 19.58c-.98.26-1.97.38-2.94.38Zm69.74-57.01c-.8 0-1.62.1-2.43.32l-74.08 19.58c-2.44.65-4.5 2.21-5.78 4.41a9.46 9.46 0 0 0-.99 7.2l4.34 16.43c1.34 5.07 6.55 8.1 11.62 6.76l74.08-19.58c2.44-.65 4.5-2.21 5.78-4.41s1.63-4.76.99-7.2l-4.34-16.43c-1.12-4.26-4.98-7.08-9.19-7.08"
    class="cls-11" />
  <path
    d="m332.54 156.37 1.19 4.5c.36 1.34 1.05 1.89 1.95 1.66.93-.25 1.27-1.03.9-2.41l-1.19-4.5 1.76-.47 1.16 4.38c.64 2.41-.28 3.88-2.32 4.42-1.97.52-3.42-.26-4.08-2.75l-1.15-4.36 1.77-.47Zm8.21 6.19-2.06-7.82 2.06-.54 2.38 2.43c.68.7 1.4 1.55 1.98 2.34h.04c-.39-1.01-.7-2.06-1.01-3.23l-.6-2.28 1.62-.43 2.07 7.82-1.86.49-2.47-2.57c-.68-.71-1.46-1.59-2.09-2.4l-.03.02c.32 1.02.63 2.12.97 3.39l.62 2.35zm5.97-9.83c.62-.28 1.45-.56 2.35-.79 1.48-.39 2.52-.38 3.42-.01.97.39 1.74 1.22 2.1 2.6.4 1.5.12 2.67-.46 3.51-.64.9-1.81 1.56-3.34 1.96-.92.24-1.58.36-2.04.41zm3.46 5.91c.16 0 .4-.07.62-.13 1.6-.41 2.41-1.57 1.92-3.44-.42-1.63-1.59-2.23-3.11-1.83-.39.1-.64.21-.78.28l1.35 5.11Zm10.43-4.87-2.88.76.49 1.86 3.21-.85.38 1.45-4.99 1.32-2.06-7.82 4.82-1.28.38 1.45-3.05.81.43 1.62 2.87-.76.38 1.44Zm.38-4.81c.54-.24 1.37-.54 2.31-.78 1.16-.31 2.02-.35 2.69-.05.56.25.96.73 1.15 1.45.26 1-.26 1.87-.87 2.29v.04c.61.08 1.05.52 1.44 1.19.48.82.99 1.77 1.22 2.03l-1.81.48c-.19-.19-.54-.78-1.03-1.68-.47-.92-.87-1.1-1.6-.92l-.53.14.81 3.07-1.75.46-2.04-7.71Zm2.64 2.9.7-.18c.88-.23 1.29-.81 1.1-1.5-.19-.72-.77-.95-1.59-.75-.43.11-.66.21-.79.27l.57 2.16Zm-45.4 27.79c-.28.25-.97.62-1.92.87-2.7.71-4.54-.6-5.12-2.83-.71-2.67.8-4.65 3.17-5.28.92-.24 1.66-.24 2.02-.16v1.5c-.39-.06-.92-.06-1.55.1-1.4.37-2.27 1.5-1.81 3.24.41 1.56 1.6 2.3 3.18 1.89.53-.14 1.09-.41 1.41-.64l.63 1.31Zm6.97-5.87c.68 2.56-.46 4.53-2.75 5.13-2.32.61-4.14-.78-4.73-3.01-.62-2.34.41-4.49 2.72-5.1 2.4-.63 4.19.82 4.76 2.97Zm-5.62 1.6c.4 1.53 1.41 2.42 2.59 2.11 1.19-.32 1.58-1.63 1.18-3.15-.37-1.4-1.36-2.43-2.58-2.11-1.19.32-1.59 1.64-1.19 3.16Zm7.84 2.08-2.07-7.82 2.06-.54 2.38 2.44c.68.7 1.4 1.55 1.98 2.34h.03c-.39-1.01-.7-2.06-1.01-3.23l-.6-2.29 1.62-.43 2.07 7.82-1.86.49-2.47-2.57c-.68-.71-1.46-1.59-2.09-2.4l-.03.02c.32 1.02.63 2.12.97 3.39l.62 2.35-1.62.43Zm7.58-3.95c.54.12 1.33.17 2.09-.03.81-.21 1.15-.66 1.02-1.17-.13-.49-.57-.67-1.6-.76-1.42-.11-2.46-.6-2.75-1.74-.35-1.33.49-2.65 2.33-3.14.88-.23 1.58-.22 2.1-.13l-.02 1.53a3.8 3.8 0 0 0-1.73.06c-.77.2-1.04.65-.94 1.05.13.5.63.6 1.74.72 1.52.15 2.35.69 2.65 1.79.35 1.31-.37 2.69-2.51 3.26-.89.24-1.83.24-2.34.11l-.03-1.56Zm6.52-6.55-2.1.55-.39-1.48 6.01-1.59.39 1.48-2.13.56 1.67 6.33-1.77.47-1.67-6.33Zm4.49-2.66c.54-.24 1.37-.54 2.31-.78 1.16-.31 2.02-.35 2.69-.05.56.25.96.73 1.15 1.45.26 1-.26 1.87-.87 2.29v.04c.61.08 1.05.52 1.44 1.19.48.82.99 1.77 1.22 2.03l-1.81.48c-.19-.19-.54-.78-1.03-1.68-.47-.92-.87-1.1-1.59-.92l-.53.14.81 3.07-1.75.46-2.04-7.71Zm2.64 2.9.7-.18c.88-.23 1.29-.81 1.11-1.5-.19-.72-.77-.95-1.59-.75-.43.11-.66.21-.79.27zm5.91-5.28 1.19 4.5c.36 1.34 1.05 1.89 1.95 1.66.93-.25 1.27-1.03.9-2.41l-1.19-4.5 1.76-.47 1.16 4.38c.64 2.41-.28 3.88-2.32 4.42-1.97.52-3.42-.26-4.08-2.76l-1.15-4.36 1.77-.47Zm13.9 4.46c-.28.25-.97.62-1.92.87-2.7.71-4.54-.6-5.12-2.83-.71-2.67.8-4.65 3.17-5.28.92-.24 1.66-.24 2.02-.16v1.5c-.39-.06-.92-.06-1.55.1-1.4.37-2.27 1.5-1.81 3.24.41 1.56 1.6 2.3 3.18 1.89.53-.14 1.09-.41 1.41-.64l.63 1.31Zm1.22-6.86-2.1.55-.39-1.48 6.01-1.59.39 1.48-2.13.56 1.67 6.33-1.77.47-1.67-6.33Zm6.23-3.24 2.07 7.82-1.77.47-2.06-7.82 1.77-.47Zm9.7 1.53c.68 2.56-.46 4.53-2.75 5.13-2.32.61-4.14-.78-4.73-3.01-.62-2.34.41-4.49 2.72-5.1 2.4-.63 4.19.82 4.75 2.97Zm-5.62 1.6c.4 1.53 1.41 2.42 2.59 2.11 1.19-.32 1.58-1.63 1.18-3.15-.37-1.4-1.36-2.43-2.58-2.11-1.2.32-1.59 1.64-1.19 3.16Zm7.84 2.08-2.06-7.82 2.06-.55 2.38 2.43c.68.7 1.4 1.55 1.98 2.34h.03c-.39-1.01-.7-2.06-1.01-3.23l-.6-2.29 1.62-.43 2.07 7.82-1.86.49-2.47-2.57c-.68-.71-1.46-1.59-2.09-2.4l-.03.02c.32 1.02.63 2.12.97 3.39l.62 2.35-1.62.43Z"
    class="cls-12" />
  <path
    d="m314.603 191.733 3.622-9.332 4.437 1.722-3.621 9.332zm10.846-2.861 3.621-9.332 4.438 1.722-3.622 9.332zm10.793-2.914 3.62-9.333 4.437 1.721-3.62 9.333zm10.888-2.82 3.622-9.332 4.437 1.722-3.621 9.332zm10.846-2.861 3.621-9.332 4.438 1.722-3.622 9.332zm10.787-2.915 3.62-9.332 4.438 1.72-3.62 9.333zm10.885-2.819 3.621-9.332 4.438 1.722-3.622 9.332zm10.836-2.864 3.621-9.332 4.438 1.722-3.622 9.332z"
    class="cls-12" style="clip-path:url(#clippath-9)" />
  <path
    d="M311.95 162.83c.33 1.25-.41 2.52-1.66 2.85s-2.52-.41-2.85-1.66.41-2.52 1.66-2.85 2.52.41 2.85 1.66m77.58-20.5c.33 1.25-.41 2.52-1.66 2.85s-2.52-.41-2.85-1.66.41-2.52 1.66-2.85 2.52.41 2.85 1.66"
    class="cls-11" />
  <path d="m310.39 164.14-1.39-1.43 40.97-39.62 37.76 18.94-.9 1.79-36.48-18.3z" class="cls-11" />
  <path d="M640.21 134.33h-62.48v-2.27h58.16z" class="cls-6" />
  <path d="M605.86 106.28c-14.4 0-26.07 11.67-26.07 26.07h52.13c0-14.4-11.67-26.07-26.07-26.07Z" class="cls-6" />
  <path
    d="M592.1 133.35h-6.67v-3.88c0-1.84 1.5-3.33 3.33-3.33s3.33 1.5 3.33 3.33v3.88Zm-4.66-2h2.67v-1.88a1.33 1.33 0 1 0-2.66 0v1.88Zm21.67 2h-6.67v-3.88c0-1.84 1.5-3.33 3.33-3.33s3.33 1.5 3.33 3.33v3.88Zm-4.67-2h2.67v-1.88a1.33 1.33 0 1 0-2.66 0v1.88Zm21.68 2h-6.67v-3.88c0-1.84 1.5-3.33 3.33-3.33s3.33 1.5 3.33 3.33v3.88Zm-4.67-2h2.67v-1.88a1.33 1.33 0 1 0-2.66 0v1.88Z"
    class="cls-11" />
  <path
    d="M585.95 124.2c-.13 0-.26-.03-.39-.08a.99.99 0 0 1-.53-1.31 20.63 20.63 0 0 1 19.04-12.62c.55 0 1 .45 1 1s-.45 1-1 1a18.65 18.65 0 0 0-17.2 11.4c-.16.38-.53.61-.92.61m-250.8 68.57-2.55 1 .49 2.84c-.89.62-1.64 1.38-2.25 2.24l-2.78-.5-1.1 2.51 2.35 1.66c-.16.92-.19 1.88-.06 2.83l-2.42 1.56 1 2.55 2.8-.38c.59.91 1.32 1.69 2.15 2.33l-.6 2.82 2.51 1.1 1.71-2.25c1.03.22 2.1.27 3.17.13l1.57 2.42 2.55-1-.38-2.8c.91-.59 1.69-1.32 2.33-2.15l2.82.6 1.1-2.51-2.25-1.71c.25-1.14.28-2.33.07-3.51l2.32-1.61-1-2.55-2.84.49a9.2 9.2 0 0 0-2.24-2.25l.5-2.78-2.51-1.1-1.66 2.35a9.1 9.1 0 0 0-3.17 0l-1.61-2.32Z"
    class="cls-10" />
  <path
    d="m340.74 216.86-1.67-2.59c-.75.05-1.5.02-2.24-.09l-1.81 2.39-3.98-1.74.65-3.02a9.8 9.8 0 0 1-1.52-1.64l-2.97.41-1.58-4.05 2.59-1.68c-.04-.62-.03-1.24.04-1.86l-2.52-1.78 1.74-3.98 2.95.53c.47-.59 1-1.12 1.59-1.58l-.52-3.04 4.05-1.58 1.71 2.46c.75-.08 1.5-.08 2.24 0l1.78-2.52 3.98 1.74-.53 2.95c.59.47 1.12 1 1.58 1.59l3.04-.52 1.58 4.05-2.46 1.71c.1.87.08 1.75-.05 2.62l2.39 1.81-1.75 3.98-3.02-.65c-.49.57-1.04 1.08-1.65 1.52l.41 2.97-4.05 1.58Zm-.67-4.72 1.47 2.27 1.06-.41-.36-2.65.54-.35c.8-.51 1.5-1.16 2.07-1.92l.38-.51 2.64.57.46-1.04-2.13-1.62.14-.62c.23-1.04.25-2.09.06-3.13l-.11-.63 2.2-1.53-.41-1.06-2.66.46-.36-.52a7.9 7.9 0 0 0-2-2l-.52-.37.47-2.63-1.04-.46-1.56 2.21-.63-.11c-.94-.17-1.89-.17-2.83 0l-.63.11-1.53-2.2-1.06.41.46 2.66-.52.36c-.78.54-1.45 1.22-2 2l-.37.52-2.63-.47-.46 1.04 2.21 1.56-.11.63a7.9 7.9 0 0 0-.05 2.52l.08.63-2.27 1.47.41 1.06 2.65-.36.34.54c.51.8 1.16 1.5 1.92 2.07l.51.38-.57 2.64 1.04.46 1.62-2.13.62.14c.93.2 1.88.24 2.82.11l.63-.09Z"
    class="cls-7" />
  <path
    d="M338.34 208.8c-.64 0-1.27-.13-1.87-.39a4.68 4.68 0 0 1-2.48-2.58 4.65 4.65 0 0 1 .07-3.57 4.673 4.673 0 0 1 8.63.17c.94 2.4-.25 5.11-2.65 6.05-.55.21-1.13.32-1.7.32m-.01-7.34c-.32 0-.65.06-.97.18-.66.26-1.19.76-1.47 1.42-.29.65-.3 1.38-.04 2.04s.76 1.19 1.41 1.47c.65.29 1.38.3 2.04.04a2.685 2.685 0 0 0 1.52-3.46 2.68 2.68 0 0 0-2.49-1.7Z"
    class="cls-7" />
  <path
    d="M192.79 149.08c-1.72 0-3.12-1.4-3.12-3.12s1.4-3.12 3.12-3.12 3.12 1.4 3.12 3.12-1.4 3.12-3.12 3.12m0-4.25c-.62 0-1.12.5-1.12 1.12s.5 1.12 1.12 1.12 1.12-.5 1.12-1.12-.5-1.12-1.12-1.12"
    class="cls-11" />
</svg>
